<svg width="1920" height="460" viewBox="0 0 1920 460" fill="none" xmlns="http://www.w3.org/2000/svg">
<mask id="mask0_2_554" style="mask-type:alpha" maskUnits="userSpaceOnUse" x="0" y="0" width="1920" height="460">
<rect width="1920" height="460" rx="20" fill="#D52027"/>
</mask>
<g mask="url(#mask0_2_554)">
<path d="M-10 389.148C-10 394.418 -8.73745 399.304 -6.21234 403.805C-3.57745 408.196 -0.00935984 411.709 4.49192 414.344C8.99319 416.979 14.0434 418.297 19.6426 418.297C25.3515 418.297 30.4017 416.979 34.7932 414.344C39.2945 411.709 42.8077 408.196 45.3328 403.805C47.8579 399.304 49.1204 394.418 49.1204 389.148C49.1204 383.659 47.8579 378.718 45.3328 374.327C42.8077 369.935 39.2945 366.477 34.7932 363.952C30.4017 361.317 25.3515 360 19.6426 360C14.0434 360 8.99319 361.317 4.49192 363.952C-0.00935984 366.477 -3.57745 369.935 -6.21234 374.327C-8.73745 378.718 -10 383.659 -10 389.148ZM7.78553 389.148C7.78553 386.843 8.27957 384.757 9.26766 382.89C10.2557 381.024 11.6281 379.542 13.3847 378.444C15.1413 377.236 17.2272 376.632 19.6426 376.632C22.0579 376.632 24.0889 377.236 25.7357 378.444C27.4923 379.542 28.8647 381.024 29.8528 382.89C30.8409 384.757 31.3349 386.843 31.3349 389.148C31.3349 391.344 30.8409 393.43 29.8528 395.406C28.8647 397.272 27.4923 398.755 25.7357 399.852C24.0889 400.95 22.0579 401.499 19.6426 401.499C17.2272 401.499 15.1413 400.95 13.3847 399.852C11.6281 398.755 10.2557 397.272 9.26766 395.406C8.27957 393.43 7.78553 391.344 7.78553 389.148ZM64.9298 451.398C64.9298 456.777 66.1923 461.663 68.7174 466.054C71.3523 470.446 74.9204 473.959 79.4217 476.594C83.923 479.229 88.9732 480.546 94.5723 480.546C100.281 480.546 105.331 479.229 109.723 476.594C114.224 473.959 117.737 470.446 120.263 466.054C122.788 461.663 124.05 456.777 124.05 451.398C124.05 446.018 122.788 441.132 120.263 436.741C117.737 432.24 114.224 428.727 109.723 426.201C105.331 423.567 100.281 422.249 94.5723 422.249C88.9732 422.249 83.923 423.567 79.4217 426.201C74.9204 428.727 71.3523 432.24 68.7174 436.741C66.1923 441.132 64.9298 446.018 64.9298 451.398ZM82.7153 451.398C82.7153 449.092 83.2094 447.006 84.1975 445.14C85.1855 443.273 86.5579 441.791 88.3145 440.693C90.0711 439.595 92.157 439.046 94.5723 439.046C96.9877 439.046 99.0187 439.595 100.666 440.693C102.422 441.791 103.794 443.273 104.783 445.14C105.771 447.006 106.265 449.092 106.265 451.398C106.265 453.593 105.771 455.679 104.783 457.655C103.794 459.522 102.422 461.004 100.666 462.102C99.0187 463.2 96.9877 463.749 94.5723 463.749C92.157 463.749 90.0711 463.2 88.3145 462.102C86.5579 461.004 85.1855 459.522 84.1975 457.655C83.2094 455.679 82.7153 453.593 82.7153 451.398ZM88.3145 362.635L4.32723 477.911H25.9004L109.888 362.635H88.3145Z" fill="white" fill-opacity="0.08"/>
<path d="M132.809 389.148C132.809 394.418 134.072 399.304 136.597 403.805C139.232 408.196 142.8 411.709 147.301 414.344C151.802 416.979 156.853 418.297 162.452 418.297C168.161 418.297 173.211 416.979 177.602 414.344C182.104 411.709 185.617 408.196 188.142 403.805C190.667 399.304 191.93 394.418 191.93 389.148C191.93 383.659 190.667 378.718 188.142 374.327C185.617 369.935 182.104 366.477 177.602 363.952C173.211 361.317 168.161 360 162.452 360C156.853 360 151.802 361.317 147.301 363.952C142.8 366.477 139.232 369.935 136.597 374.327C134.072 378.718 132.809 383.659 132.809 389.148ZM150.595 389.148C150.595 386.843 151.089 384.757 152.077 382.89C153.065 381.024 154.437 379.542 156.194 378.444C157.95 377.236 160.036 376.632 162.452 376.632C164.867 376.632 166.898 377.236 168.545 378.444C170.302 379.542 171.674 381.024 172.662 382.89C173.65 384.757 174.144 386.843 174.144 389.148C174.144 391.344 173.65 393.43 172.662 395.406C171.674 397.272 170.302 398.755 168.545 399.852C166.898 400.95 164.867 401.499 162.452 401.499C160.036 401.499 157.95 400.95 156.194 399.852C154.437 398.755 153.065 397.272 152.077 395.406C151.089 393.43 150.595 391.344 150.595 389.148ZM207.739 451.398C207.739 456.777 209.002 461.663 211.527 466.054C214.162 470.446 217.73 473.959 222.231 476.594C226.732 479.229 231.782 480.546 237.382 480.546C243.09 480.546 248.141 479.229 252.532 476.594C257.033 473.959 260.547 470.446 263.072 466.054C265.597 461.663 266.859 456.777 266.859 451.398C266.859 446.018 265.597 441.132 263.072 436.741C260.547 432.24 257.033 428.727 252.532 426.201C248.141 423.567 243.09 422.249 237.382 422.249C231.782 422.249 226.732 423.567 222.231 426.201C217.73 428.727 214.162 432.24 211.527 436.741C209.002 441.132 207.739 446.018 207.739 451.398ZM225.524 451.398C225.524 449.092 226.019 447.006 227.007 445.14C227.995 443.273 229.367 441.791 231.124 440.693C232.88 439.595 234.966 439.046 237.382 439.046C239.797 439.046 241.828 439.595 243.475 440.693C245.231 441.791 246.604 443.273 247.592 445.14C248.58 447.006 249.074 449.092 249.074 451.398C249.074 453.593 248.58 455.679 247.592 457.655C246.604 459.522 245.231 461.004 243.475 462.102C241.828 463.2 239.797 463.749 237.382 463.749C234.966 463.749 232.88 463.2 231.124 462.102C229.367 461.004 227.995 459.522 227.007 457.655C226.019 455.679 225.524 453.593 225.524 451.398ZM231.124 362.635L147.136 477.911H168.71L252.697 362.635H231.124Z" fill="white" fill-opacity="0.08"/>
<path d="M275.618 389.148C275.618 394.418 276.881 399.304 279.406 403.805C282.041 408.196 285.609 411.709 290.11 414.344C294.612 416.979 299.662 418.297 305.261 418.297C310.97 418.297 316.02 416.979 320.412 414.344C324.913 411.709 328.426 408.196 330.951 403.805C333.476 399.304 334.739 394.418 334.739 389.148C334.739 383.659 333.476 378.718 330.951 374.327C328.426 369.935 324.913 366.477 320.412 363.952C316.02 361.317 310.97 360 305.261 360C299.662 360 294.612 361.317 290.11 363.952C285.609 366.477 282.041 369.935 279.406 374.327C276.881 378.718 275.618 383.659 275.618 389.148ZM293.404 389.148C293.404 386.843 293.898 384.757 294.886 382.89C295.874 381.024 297.246 379.542 299.003 378.444C300.76 377.236 302.846 376.632 305.261 376.632C307.676 376.632 309.707 377.236 311.354 378.444C313.111 379.542 314.483 381.024 315.471 382.89C316.459 384.757 316.953 386.843 316.953 389.148C316.953 391.344 316.459 393.43 315.471 395.406C314.483 397.272 313.111 398.755 311.354 399.852C309.707 400.95 307.676 401.499 305.261 401.499C302.846 401.499 300.76 400.95 299.003 399.852C297.246 398.755 295.874 397.272 294.886 395.406C293.898 393.43 293.404 391.344 293.404 389.148ZM350.548 451.398C350.548 456.777 351.811 461.663 354.336 466.054C356.971 470.446 360.539 473.959 365.04 476.594C369.541 479.229 374.592 480.546 380.191 480.546C385.9 480.546 390.95 479.229 395.341 476.594C399.843 473.959 403.356 470.446 405.881 466.054C408.406 461.663 409.669 456.777 409.669 451.398C409.669 446.018 408.406 441.132 405.881 436.741C403.356 432.24 399.843 428.727 395.341 426.201C390.95 423.567 385.9 422.249 380.191 422.249C374.592 422.249 369.541 423.567 365.04 426.201C360.539 428.727 356.971 432.24 354.336 436.741C351.811 441.132 350.548 446.018 350.548 451.398ZM368.334 451.398C368.334 449.092 368.828 447.006 369.816 445.14C370.804 443.273 372.176 441.791 373.933 440.693C375.689 439.595 377.775 439.046 380.191 439.046C382.606 439.046 384.637 439.595 386.284 440.693C388.04 441.791 389.413 443.273 390.401 445.14C391.389 447.006 391.883 449.092 391.883 451.398C391.883 453.593 391.389 455.679 390.401 457.655C389.413 459.522 388.04 461.004 386.284 462.102C384.637 463.2 382.606 463.749 380.191 463.749C377.775 463.749 375.689 463.2 373.933 462.102C372.176 461.004 370.804 459.522 369.816 457.655C368.828 455.679 368.334 453.593 368.334 451.398ZM373.933 362.635L289.946 477.911H311.519L395.506 362.635H373.933Z" fill="white" fill-opacity="0.08"/>
<path d="M418.428 389.148C418.428 394.418 419.69 399.304 422.215 403.805C424.85 408.196 428.418 411.709 432.919 414.344C437.421 416.979 442.471 418.297 448.07 418.297C453.779 418.297 458.829 416.979 463.221 414.344C467.722 411.709 471.235 408.196 473.76 403.805C476.285 399.304 477.548 394.418 477.548 389.148C477.548 383.659 476.285 378.718 473.76 374.327C471.235 369.935 467.722 366.477 463.221 363.952C458.829 361.317 453.779 360 448.07 360C442.471 360 437.421 361.317 432.919 363.952C428.418 366.477 424.85 369.935 422.215 374.327C419.69 378.718 418.428 383.659 418.428 389.148ZM436.213 389.148C436.213 386.843 436.707 384.757 437.695 382.89C438.683 381.024 440.056 379.542 441.812 378.444C443.569 377.236 445.655 376.632 448.07 376.632C450.485 376.632 452.516 377.236 454.163 378.444C455.92 379.542 457.292 381.024 458.28 382.89C459.268 384.757 459.762 386.843 459.762 389.148C459.762 391.344 459.268 393.43 458.28 395.406C457.292 397.272 455.92 398.755 454.163 399.852C452.516 400.95 450.485 401.499 448.07 401.499C445.655 401.499 443.569 400.95 441.812 399.852C440.056 398.755 438.683 397.272 437.695 395.406C436.707 393.43 436.213 391.344 436.213 389.148ZM493.357 451.398C493.357 456.777 494.62 461.663 497.145 466.054C499.78 470.446 503.348 473.959 507.849 476.594C512.351 479.229 517.401 480.546 523 480.546C528.709 480.546 533.759 479.229 538.151 476.594C542.652 473.959 546.165 470.446 548.69 466.054C551.215 461.663 552.478 456.777 552.478 451.398C552.478 446.018 551.215 441.132 548.69 436.741C546.165 432.24 542.652 428.727 538.151 426.201C533.759 423.567 528.709 422.249 523 422.249C517.401 422.249 512.351 423.567 507.849 426.201C503.348 428.727 499.78 432.24 497.145 436.741C494.62 441.132 493.357 446.018 493.357 451.398ZM511.143 451.398C511.143 449.092 511.637 447.006 512.625 445.14C513.613 443.273 514.985 441.791 516.742 440.693C518.499 439.595 520.585 439.046 523 439.046C525.415 439.046 527.446 439.595 529.093 440.693C530.85 441.791 532.222 443.273 533.21 445.14C534.198 447.006 534.692 449.092 534.692 451.398C534.692 453.593 534.198 455.679 533.21 457.655C532.222 459.522 530.85 461.004 529.093 462.102C527.446 463.2 525.415 463.749 523 463.749C520.585 463.749 518.499 463.2 516.742 462.102C514.985 461.004 513.613 459.522 512.625 457.655C511.637 455.679 511.143 453.593 511.143 451.398ZM516.742 362.635L432.755 477.911H454.328L538.315 362.635H516.742Z" fill="white" fill-opacity="0.08"/>
<path d="M561.237 389.148C561.237 394.418 562.499 399.304 565.024 403.805C567.659 408.196 571.227 411.709 575.729 414.344C580.23 416.979 585.28 418.297 590.879 418.297C596.588 418.297 601.638 416.979 606.03 414.344C610.531 411.709 614.044 408.196 616.569 403.805C619.095 399.304 620.357 394.418 620.357 389.148C620.357 383.659 619.095 378.718 616.569 374.327C614.044 369.935 610.531 366.477 606.03 363.952C601.638 361.317 596.588 360 590.879 360C585.28 360 580.23 361.317 575.729 363.952C571.227 366.477 567.659 369.935 565.024 374.327C562.499 378.718 561.237 383.659 561.237 389.148ZM579.022 389.148C579.022 386.843 579.516 384.757 580.504 382.89C581.492 381.024 582.865 379.542 584.621 378.444C586.378 377.236 588.464 376.632 590.879 376.632C593.295 376.632 595.326 377.236 596.972 378.444C598.729 379.542 600.101 381.024 601.089 382.89C602.078 384.757 602.572 386.843 602.572 389.148C602.572 391.344 602.078 393.43 601.089 395.406C600.101 397.272 598.729 398.755 596.972 399.852C595.326 400.95 593.295 401.499 590.879 401.499C588.464 401.499 586.378 400.95 584.621 399.852C582.865 398.755 581.492 397.272 580.504 395.406C579.516 393.43 579.022 391.344 579.022 389.148ZM636.167 451.398C636.167 456.777 637.429 461.663 639.954 466.054C642.589 470.446 646.157 473.959 650.658 476.594C655.16 479.229 660.21 480.546 665.809 480.546C671.518 480.546 676.568 479.229 680.96 476.594C685.461 473.959 688.974 470.446 691.499 466.054C694.024 461.663 695.287 456.777 695.287 451.398C695.287 446.018 694.024 441.132 691.499 436.741C688.974 432.24 685.461 428.727 680.96 426.201C676.568 423.567 671.518 422.249 665.809 422.249C660.21 422.249 655.16 423.567 650.658 426.201C646.157 428.727 642.589 432.24 639.954 436.741C637.429 441.132 636.167 446.018 636.167 451.398ZM653.952 451.398C653.952 449.092 654.446 447.006 655.434 445.14C656.422 443.273 657.795 441.791 659.551 440.693C661.308 439.595 663.394 439.046 665.809 439.046C668.224 439.046 670.255 439.595 671.902 440.693C673.659 441.791 675.031 443.273 676.019 445.14C677.007 447.006 677.501 449.092 677.501 451.398C677.501 453.593 677.007 455.679 676.019 457.655C675.031 459.522 673.659 461.004 671.902 462.102C670.255 463.2 668.224 463.749 665.809 463.749C663.394 463.749 661.308 463.2 659.551 462.102C657.795 461.004 656.422 459.522 655.434 457.655C654.446 455.679 653.952 453.593 653.952 451.398ZM659.551 362.635L575.564 477.911H597.137L681.124 362.635H659.551Z" fill="white" fill-opacity="0.08"/>
<path d="M704.046 389.148C704.046 394.418 705.308 399.304 707.834 403.805C710.468 408.196 714.037 411.709 718.538 414.344C723.039 416.979 728.089 418.297 733.688 418.297C739.397 418.297 744.448 416.979 748.839 414.344C753.34 411.709 756.854 408.196 759.379 403.805C761.904 399.304 763.166 394.418 763.166 389.148C763.166 383.659 761.904 378.718 759.379 374.327C756.854 369.935 753.34 366.477 748.839 363.952C744.448 361.317 739.397 360 733.688 360C728.089 360 723.039 361.317 718.538 363.952C714.037 366.477 710.468 369.935 707.834 374.327C705.308 378.718 704.046 383.659 704.046 389.148ZM721.831 389.148C721.831 386.843 722.326 384.757 723.314 382.89C724.302 381.024 725.674 379.542 727.431 378.444C729.187 377.236 731.273 376.632 733.688 376.632C736.104 376.632 738.135 377.236 739.782 378.444C741.538 379.542 742.911 381.024 743.899 382.89C744.887 384.757 745.381 386.843 745.381 389.148C745.381 391.344 744.887 393.43 743.899 395.406C742.911 397.272 741.538 398.755 739.782 399.852C738.135 400.95 736.104 401.499 733.688 401.499C731.273 401.499 729.187 400.95 727.431 399.852C725.674 398.755 724.302 397.272 723.314 395.406C722.326 393.43 721.831 391.344 721.831 389.148ZM778.976 451.398C778.976 456.777 780.238 461.663 782.763 466.054C785.398 470.446 788.966 473.959 793.468 476.594C797.969 479.229 803.019 480.546 808.618 480.546C814.327 480.546 819.377 479.229 823.769 476.594C828.27 473.959 831.783 470.446 834.308 466.054C836.834 461.663 838.096 456.777 838.096 451.398C838.096 446.018 836.834 441.132 834.308 436.741C831.783 432.24 828.27 428.727 823.769 426.201C819.377 423.567 814.327 422.249 808.618 422.249C803.019 422.249 797.969 423.567 793.468 426.201C788.966 428.727 785.398 432.24 782.763 436.741C780.238 441.132 778.976 446.018 778.976 451.398ZM796.761 451.398C796.761 449.092 797.255 447.006 798.243 445.14C799.231 443.273 800.604 441.791 802.36 440.693C804.117 439.595 806.203 439.046 808.618 439.046C811.034 439.046 813.065 439.595 814.711 440.693C816.468 441.791 817.84 443.273 818.828 445.14C819.817 447.006 820.311 449.092 820.311 451.398C820.311 453.593 819.817 455.679 818.828 457.655C817.84 459.522 816.468 461.004 814.711 462.102C813.065 463.2 811.034 463.749 808.618 463.749C806.203 463.749 804.117 463.2 802.36 462.102C800.604 461.004 799.231 459.522 798.243 457.655C797.255 455.679 796.761 453.593 796.761 451.398ZM802.36 362.635L718.373 477.911H739.946L823.934 362.635H802.36Z" fill="white" fill-opacity="0.08"/>
<path d="M846.855 389.148C846.855 394.418 848.118 399.304 850.643 403.805C853.278 408.196 856.846 411.709 861.347 414.344C865.848 416.979 870.898 418.297 876.498 418.297C882.207 418.297 887.257 416.979 891.648 414.344C896.15 411.709 899.663 408.196 902.188 403.805C904.713 399.304 905.975 394.418 905.975 389.148C905.975 383.659 904.713 378.718 902.188 374.327C899.663 369.935 896.15 366.477 891.648 363.952C887.257 361.317 882.207 360 876.498 360C870.898 360 865.848 361.317 861.347 363.952C856.846 366.477 853.278 369.935 850.643 374.327C848.118 378.718 846.855 383.659 846.855 389.148ZM864.641 389.148C864.641 386.843 865.135 384.757 866.123 382.89C867.111 381.024 868.483 379.542 870.24 378.444C871.996 377.236 874.082 376.632 876.498 376.632C878.913 376.632 880.944 377.236 882.591 378.444C884.347 379.542 885.72 381.024 886.708 382.89C887.696 384.757 888.19 386.843 888.19 389.148C888.19 391.344 887.696 393.43 886.708 395.406C885.72 397.272 884.347 398.755 882.591 399.852C880.944 400.95 878.913 401.499 876.498 401.499C874.082 401.499 871.996 400.95 870.24 399.852C868.483 398.755 867.111 397.272 866.123 395.406C865.135 393.43 864.641 391.344 864.641 389.148ZM921.785 451.398C921.785 456.777 923.047 461.663 925.573 466.054C928.207 470.446 931.776 473.959 936.277 476.594C940.778 479.229 945.828 480.546 951.427 480.546C957.136 480.546 962.187 479.229 966.578 476.594C971.079 473.959 974.593 470.446 977.118 466.054C979.643 461.663 980.905 456.777 980.905 451.398C980.905 446.018 979.643 441.132 977.118 436.741C974.593 432.24 971.079 428.727 966.578 426.201C962.187 423.567 957.136 422.249 951.427 422.249C945.828 422.249 940.778 423.567 936.277 426.201C931.776 428.727 928.207 432.24 925.573 436.741C923.047 441.132 921.785 446.018 921.785 451.398ZM939.57 451.398C939.57 449.092 940.064 447.006 941.052 445.14C942.041 443.273 943.413 441.791 945.17 440.693C946.926 439.595 949.012 439.046 951.427 439.046C953.843 439.046 955.874 439.595 957.521 440.693C959.277 441.791 960.65 443.273 961.638 445.14C962.626 447.006 963.12 449.092 963.12 451.398C963.12 453.593 962.626 455.679 961.638 457.655C960.65 459.522 959.277 461.004 957.521 462.102C955.874 463.2 953.843 463.749 951.427 463.749C949.012 463.749 946.926 463.2 945.17 462.102C943.413 461.004 942.041 459.522 941.052 457.655C940.064 455.679 939.57 453.593 939.57 451.398ZM945.17 362.635L861.182 477.911H882.755L966.743 362.635H945.17Z" fill="white" fill-opacity="0.08"/>
<path d="M989.664 389.148C989.664 394.418 990.927 399.304 993.452 403.805C996.087 408.196 999.655 411.709 1004.16 414.344C1008.66 416.979 1013.71 418.297 1019.31 418.297C1025.02 418.297 1030.07 416.979 1034.46 414.344C1038.96 411.709 1042.47 408.196 1045 403.805C1047.52 399.304 1048.78 394.418 1048.78 389.148C1048.78 383.659 1047.52 378.718 1045 374.327C1042.47 369.935 1038.96 366.477 1034.46 363.952C1030.07 361.317 1025.02 360 1019.31 360C1013.71 360 1008.66 361.317 1004.16 363.952C999.655 366.477 996.087 369.935 993.452 374.327C990.927 378.718 989.664 383.659 989.664 389.148ZM1007.45 389.148C1007.45 386.843 1007.94 384.757 1008.93 382.89C1009.92 381.024 1011.29 379.542 1013.05 378.444C1014.81 377.236 1016.89 376.632 1019.31 376.632C1021.72 376.632 1023.75 377.236 1025.4 378.444C1027.16 379.542 1028.53 381.024 1029.52 382.89C1030.51 384.757 1031 386.843 1031 389.148C1031 391.344 1030.51 393.43 1029.52 395.406C1028.53 397.272 1027.16 398.755 1025.4 399.852C1023.75 400.95 1021.72 401.499 1019.31 401.499C1016.89 401.499 1014.81 400.95 1013.05 399.852C1011.29 398.755 1009.92 397.272 1008.93 395.406C1007.94 393.43 1007.45 391.344 1007.45 389.148ZM1064.59 451.398C1064.59 456.777 1065.86 461.663 1068.38 466.054C1071.02 470.446 1074.58 473.959 1079.09 476.594C1083.59 479.229 1088.64 480.546 1094.24 480.546C1099.95 480.546 1105 479.229 1109.39 476.594C1113.89 473.959 1117.4 470.446 1119.93 466.054C1122.45 461.663 1123.71 456.777 1123.71 451.398C1123.71 446.018 1122.45 441.132 1119.93 436.741C1117.4 432.24 1113.89 428.727 1109.39 426.201C1105 423.567 1099.95 422.249 1094.24 422.249C1088.64 422.249 1083.59 423.567 1079.09 426.201C1074.58 428.727 1071.02 432.24 1068.38 436.741C1065.86 441.132 1064.59 446.018 1064.59 451.398ZM1082.38 451.398C1082.38 449.092 1082.87 447.006 1083.86 445.14C1084.85 443.273 1086.22 441.791 1087.98 440.693C1089.74 439.595 1091.82 439.046 1094.24 439.046C1096.65 439.046 1098.68 439.595 1100.33 440.693C1102.09 441.791 1103.46 443.273 1104.45 445.14C1105.43 447.006 1105.93 449.092 1105.93 451.398C1105.93 453.593 1105.43 455.679 1104.45 457.655C1103.46 459.522 1102.09 461.004 1100.33 462.102C1098.68 463.2 1096.65 463.749 1094.24 463.749C1091.82 463.749 1089.74 463.2 1087.98 462.102C1086.22 461.004 1084.85 459.522 1083.86 457.655C1082.87 455.679 1082.38 453.593 1082.38 451.398ZM1087.98 362.635L1003.99 477.911H1025.56L1109.55 362.635H1087.98Z" fill="white" fill-opacity="0.08"/>
<path d="M1132.47 389.148C1132.47 394.418 1133.74 399.304 1136.26 403.805C1138.9 408.196 1142.46 411.709 1146.97 414.344C1151.47 416.979 1156.52 418.297 1162.12 418.297C1167.82 418.297 1172.88 416.979 1177.27 414.344C1181.77 411.709 1185.28 408.196 1187.81 403.805C1190.33 399.304 1191.59 394.418 1191.59 389.148C1191.59 383.659 1190.33 378.718 1187.81 374.327C1185.28 369.935 1181.77 366.477 1177.27 363.952C1172.88 361.317 1167.82 360 1162.12 360C1156.52 360 1151.47 361.317 1146.97 363.952C1142.46 366.477 1138.9 369.935 1136.26 374.327C1133.74 378.718 1132.47 383.659 1132.47 389.148ZM1150.26 389.148C1150.26 386.843 1150.75 384.757 1151.74 382.89C1152.73 381.024 1154.1 379.542 1155.86 378.444C1157.61 377.236 1159.7 376.632 1162.12 376.632C1164.53 376.632 1166.56 377.236 1168.21 378.444C1169.97 379.542 1171.34 381.024 1172.33 382.89C1173.31 384.757 1173.81 386.843 1173.81 389.148C1173.81 391.344 1173.31 393.43 1172.33 395.406C1171.34 397.272 1169.97 398.755 1168.21 399.852C1166.56 400.95 1164.53 401.499 1162.12 401.499C1159.7 401.499 1157.61 400.95 1155.86 399.852C1154.1 398.755 1152.73 397.272 1151.74 395.406C1150.75 393.43 1150.26 391.344 1150.26 389.148ZM1207.4 451.398C1207.4 456.777 1208.67 461.663 1211.19 466.054C1213.83 470.446 1217.39 473.959 1221.9 476.594C1226.4 479.229 1231.45 480.546 1237.05 480.546C1242.75 480.546 1247.8 479.229 1252.2 476.594C1256.7 473.959 1260.21 470.446 1262.74 466.054C1265.26 461.663 1266.52 456.777 1266.52 451.398C1266.52 446.018 1265.26 441.132 1262.74 436.741C1260.21 432.24 1256.7 428.727 1252.2 426.201C1247.8 423.567 1242.75 422.249 1237.05 422.249C1231.45 422.249 1226.4 423.567 1221.9 426.201C1217.39 428.727 1213.83 432.24 1211.19 436.741C1208.67 441.132 1207.4 446.018 1207.4 451.398ZM1225.19 451.398C1225.19 449.092 1225.68 447.006 1226.67 445.14C1227.66 443.273 1229.03 441.791 1230.79 440.693C1232.54 439.595 1234.63 439.046 1237.05 439.046C1239.46 439.046 1241.49 439.595 1243.14 440.693C1244.9 441.791 1246.27 443.273 1247.26 445.14C1248.24 447.006 1248.74 449.092 1248.74 451.398C1248.74 453.593 1248.24 455.679 1247.26 457.655C1246.27 459.522 1244.9 461.004 1243.14 462.102C1241.49 463.2 1239.46 463.749 1237.05 463.749C1234.63 463.749 1232.54 463.2 1230.79 462.102C1229.03 461.004 1227.66 459.522 1226.67 457.655C1225.68 455.679 1225.19 453.593 1225.19 451.398ZM1230.79 362.635L1146.8 477.911H1168.37L1252.36 362.635H1230.79Z" fill="white" fill-opacity="0.08"/>
<path d="M1275.28 389.148C1275.28 394.418 1276.55 399.304 1279.07 403.805C1281.71 408.196 1285.27 411.709 1289.77 414.344C1294.28 416.979 1299.33 418.297 1304.93 418.297C1310.63 418.297 1315.68 416.979 1320.08 414.344C1324.58 411.709 1328.09 408.196 1330.62 403.805C1333.14 399.304 1334.4 394.418 1334.4 389.148C1334.4 383.659 1333.14 378.718 1330.62 374.327C1328.09 369.935 1324.58 366.477 1320.08 363.952C1315.68 361.317 1310.63 360 1304.93 360C1299.33 360 1294.28 361.317 1289.77 363.952C1285.27 366.477 1281.71 369.935 1279.07 374.327C1276.55 378.718 1275.28 383.659 1275.28 389.148ZM1293.07 389.148C1293.07 386.843 1293.56 384.757 1294.55 382.89C1295.54 381.024 1296.91 379.542 1298.67 378.444C1300.42 377.236 1302.51 376.632 1304.93 376.632C1307.34 376.632 1309.37 377.236 1311.02 378.444C1312.77 379.542 1314.15 381.024 1315.14 382.89C1316.12 384.757 1316.62 386.843 1316.62 389.148C1316.62 391.344 1316.12 393.43 1315.14 395.406C1314.15 397.272 1312.77 398.755 1311.02 399.852C1309.37 400.95 1307.34 401.499 1304.93 401.499C1302.51 401.499 1300.42 400.95 1298.67 399.852C1296.91 398.755 1295.54 397.272 1294.55 395.406C1293.56 393.43 1293.07 391.344 1293.07 389.148ZM1350.21 451.398C1350.21 456.777 1351.47 461.663 1354 466.054C1356.63 470.446 1360.2 473.959 1364.7 476.594C1369.21 479.229 1374.26 480.546 1379.85 480.546C1385.56 480.546 1390.61 479.229 1395.01 476.594C1399.51 473.959 1403.02 470.446 1405.55 466.054C1408.07 461.663 1409.33 456.777 1409.33 451.398C1409.33 446.018 1408.07 441.132 1405.55 436.741C1403.02 432.24 1399.51 428.727 1395.01 426.201C1390.61 423.567 1385.56 422.249 1379.85 422.249C1374.26 422.249 1369.21 423.567 1364.7 426.201C1360.2 428.727 1356.63 432.24 1354 436.741C1351.47 441.132 1350.21 446.018 1350.21 451.398ZM1368 451.398C1368 449.092 1368.49 447.006 1369.48 445.14C1370.47 443.273 1371.84 441.791 1373.6 440.693C1375.35 439.595 1377.44 439.046 1379.85 439.046C1382.27 439.046 1384.3 439.595 1385.95 440.693C1387.7 441.791 1389.08 443.273 1390.07 445.14C1391.05 447.006 1391.55 449.092 1391.55 451.398C1391.55 453.593 1391.05 455.679 1390.07 457.655C1389.08 459.522 1387.7 461.004 1385.95 462.102C1384.3 463.2 1382.27 463.749 1379.85 463.749C1377.44 463.749 1375.35 463.2 1373.6 462.102C1371.84 461.004 1370.47 459.522 1369.48 457.655C1368.49 455.679 1368 453.593 1368 451.398ZM1373.6 362.635L1289.61 477.911H1311.18L1395.17 362.635H1373.6Z" fill="white" fill-opacity="0.08"/>
<path d="M1407 389.148C1407 394.418 1408.26 399.304 1410.79 403.805C1413.42 408.196 1416.99 411.709 1421.49 414.344C1425.99 416.979 1431.04 418.297 1436.64 418.297C1442.35 418.297 1447.4 416.979 1451.79 414.344C1456.29 411.709 1459.81 408.196 1462.33 403.805C1464.86 399.304 1466.12 394.418 1466.12 389.148C1466.12 383.659 1464.86 378.718 1462.33 374.327C1459.81 369.935 1456.29 366.477 1451.79 363.952C1447.4 361.317 1442.35 360 1436.64 360C1431.04 360 1425.99 361.317 1421.49 363.952C1416.99 366.477 1413.42 369.935 1410.79 374.327C1408.26 378.718 1407 383.659 1407 389.148ZM1424.79 389.148C1424.79 386.843 1425.28 384.757 1426.27 382.89C1427.26 381.024 1428.63 379.542 1430.38 378.444C1432.14 377.236 1434.23 376.632 1436.64 376.632C1439.06 376.632 1441.09 377.236 1442.74 378.444C1444.49 379.542 1445.86 381.024 1446.85 382.89C1447.84 384.757 1448.33 386.843 1448.33 389.148C1448.33 391.344 1447.84 393.43 1446.85 395.406C1445.86 397.272 1444.49 398.755 1442.74 399.852C1441.09 400.95 1439.06 401.499 1436.64 401.499C1434.23 401.499 1432.14 400.95 1430.38 399.852C1428.63 398.755 1427.26 397.272 1426.27 395.406C1425.28 393.43 1424.79 391.344 1424.79 389.148ZM1481.93 451.398C1481.93 456.777 1483.19 461.663 1485.72 466.054C1488.35 470.446 1491.92 473.959 1496.42 476.594C1500.92 479.229 1505.97 480.546 1511.57 480.546C1517.28 480.546 1522.33 479.229 1526.72 476.594C1531.22 473.959 1534.74 470.446 1537.26 466.054C1539.79 461.663 1541.05 456.777 1541.05 451.398C1541.05 446.018 1539.79 441.132 1537.26 436.741C1534.74 432.24 1531.22 428.727 1526.72 426.201C1522.33 423.567 1517.28 422.249 1511.57 422.249C1505.97 422.249 1500.92 423.567 1496.42 426.201C1491.92 428.727 1488.35 432.24 1485.72 436.741C1483.19 441.132 1481.93 446.018 1481.93 451.398ZM1499.72 451.398C1499.72 449.092 1500.21 447.006 1501.2 445.14C1502.19 443.273 1503.56 441.791 1505.31 440.693C1507.07 439.595 1509.16 439.046 1511.57 439.046C1513.99 439.046 1516.02 439.595 1517.67 440.693C1519.42 441.791 1520.79 443.273 1521.78 445.14C1522.77 447.006 1523.26 449.092 1523.26 451.398C1523.26 453.593 1522.77 455.679 1521.78 457.655C1520.79 459.522 1519.42 461.004 1517.67 462.102C1516.02 463.2 1513.99 463.749 1511.57 463.749C1509.16 463.749 1507.07 463.2 1505.31 462.102C1503.56 461.004 1502.19 459.522 1501.2 457.655C1500.21 455.679 1499.72 453.593 1499.72 451.398ZM1505.31 362.635L1421.33 477.911H1442.9L1526.89 362.635H1505.31Z" fill="white" fill-opacity="0.08"/>
<path d="M1549.81 389.148C1549.81 394.418 1551.07 399.304 1553.6 403.805C1556.23 408.196 1559.8 411.709 1564.3 414.344C1568.8 416.979 1573.85 418.297 1579.45 418.297C1585.16 418.297 1590.21 416.979 1594.6 414.344C1599.1 411.709 1602.62 408.196 1605.14 403.805C1607.67 399.304 1608.93 394.418 1608.93 389.148C1608.93 383.659 1607.67 378.718 1605.14 374.327C1602.62 369.935 1599.1 366.477 1594.6 363.952C1590.21 361.317 1585.16 360 1579.45 360C1573.85 360 1568.8 361.317 1564.3 363.952C1559.8 366.477 1556.23 369.935 1553.6 374.327C1551.07 378.718 1549.81 383.659 1549.81 389.148ZM1567.59 389.148C1567.59 386.843 1568.09 384.757 1569.08 382.89C1570.06 381.024 1571.44 379.542 1573.19 378.444C1574.95 377.236 1577.04 376.632 1579.45 376.632C1581.87 376.632 1583.9 377.236 1585.54 378.444C1587.3 379.542 1588.67 381.024 1589.66 382.89C1590.65 384.757 1591.14 386.843 1591.14 389.148C1591.14 391.344 1590.65 393.43 1589.66 395.406C1588.67 397.272 1587.3 398.755 1585.54 399.852C1583.9 400.95 1581.87 401.499 1579.45 401.499C1577.04 401.499 1574.95 400.95 1573.19 399.852C1571.44 398.755 1570.06 397.272 1569.08 395.406C1568.09 393.43 1567.59 391.344 1567.59 389.148ZM1624.74 451.398C1624.74 456.777 1626 461.663 1628.53 466.054C1631.16 470.446 1634.73 473.959 1639.23 476.594C1643.73 479.229 1648.78 480.546 1654.38 480.546C1660.09 480.546 1665.14 479.229 1669.53 476.594C1674.03 473.959 1677.55 470.446 1680.07 466.054C1682.6 461.663 1683.86 456.777 1683.86 451.398C1683.86 446.018 1682.6 441.132 1680.07 436.741C1677.55 432.24 1674.03 428.727 1669.53 426.201C1665.14 423.567 1660.09 422.249 1654.38 422.249C1648.78 422.249 1643.73 423.567 1639.23 426.201C1634.73 428.727 1631.16 432.24 1628.53 436.741C1626 441.132 1624.74 446.018 1624.74 451.398ZM1642.52 451.398C1642.52 449.092 1643.02 447.006 1644.01 445.14C1644.99 443.273 1646.37 441.791 1648.12 440.693C1649.88 439.595 1651.97 439.046 1654.38 439.046C1656.8 439.046 1658.83 439.595 1660.47 440.693C1662.23 441.791 1663.6 443.273 1664.59 445.14C1665.58 447.006 1666.07 449.092 1666.07 451.398C1666.07 453.593 1665.58 455.679 1664.59 457.655C1663.6 459.522 1662.23 461.004 1660.47 462.102C1658.83 463.2 1656.8 463.749 1654.38 463.749C1651.97 463.749 1649.88 463.2 1648.12 462.102C1646.37 461.004 1644.99 459.522 1644.01 457.655C1643.02 455.679 1642.52 453.593 1642.52 451.398ZM1648.12 362.635L1564.14 477.911H1585.71L1669.7 362.635H1648.12Z" fill="white" fill-opacity="0.08"/>
<path d="M1692.62 389.148C1692.62 394.418 1693.88 399.304 1696.41 403.805C1699.04 408.196 1702.61 411.709 1707.11 414.344C1711.61 416.979 1716.66 418.297 1722.26 418.297C1727.97 418.297 1733.02 416.979 1737.41 414.344C1741.91 411.709 1745.43 408.196 1747.95 403.805C1750.48 399.304 1751.74 394.418 1751.74 389.148C1751.74 383.659 1750.48 378.718 1747.95 374.327C1745.43 369.935 1741.91 366.477 1737.41 363.952C1733.02 361.317 1727.97 360 1722.26 360C1716.66 360 1711.61 361.317 1707.11 363.952C1702.61 366.477 1699.04 369.935 1696.41 374.327C1693.88 378.718 1692.62 383.659 1692.62 389.148ZM1710.4 389.148C1710.4 386.843 1710.9 384.757 1711.89 382.89C1712.87 381.024 1714.25 379.542 1716 378.444C1717.76 377.236 1719.85 376.632 1722.26 376.632C1724.68 376.632 1726.71 377.236 1728.35 378.444C1730.11 379.542 1731.48 381.024 1732.47 382.89C1733.46 384.757 1733.95 386.843 1733.95 389.148C1733.95 391.344 1733.46 393.43 1732.47 395.406C1731.48 397.272 1730.11 398.755 1728.35 399.852C1726.71 400.95 1724.68 401.499 1722.26 401.499C1719.85 401.499 1717.76 400.95 1716 399.852C1714.25 398.755 1712.87 397.272 1711.89 395.406C1710.9 393.43 1710.4 391.344 1710.4 389.148ZM1767.55 451.398C1767.55 456.777 1768.81 461.663 1771.34 466.054C1773.97 470.446 1777.54 473.959 1782.04 476.594C1786.54 479.229 1791.59 480.546 1797.19 480.546C1802.9 480.546 1807.95 479.229 1812.34 476.594C1816.84 473.959 1820.36 470.446 1822.88 466.054C1825.41 461.663 1826.67 456.777 1826.67 451.398C1826.67 446.018 1825.41 441.132 1822.88 436.741C1820.36 432.24 1816.84 428.727 1812.34 426.201C1807.95 423.567 1802.9 422.249 1797.19 422.249C1791.59 422.249 1786.54 423.567 1782.04 426.201C1777.54 428.727 1773.97 432.24 1771.34 436.741C1768.81 441.132 1767.55 446.018 1767.55 451.398ZM1785.33 451.398C1785.33 449.092 1785.83 447.006 1786.82 445.14C1787.8 443.273 1789.18 441.791 1790.93 440.693C1792.69 439.595 1794.78 439.046 1797.19 439.046C1799.61 439.046 1801.64 439.595 1803.28 440.693C1805.04 441.791 1806.41 443.273 1807.4 445.14C1808.39 447.006 1808.88 449.092 1808.88 451.398C1808.88 453.593 1808.39 455.679 1807.4 457.655C1806.41 459.522 1805.04 461.004 1803.28 462.102C1801.64 463.2 1799.61 463.749 1797.19 463.749C1794.78 463.749 1792.69 463.2 1790.93 462.102C1789.18 461.004 1787.8 459.522 1786.82 457.655C1785.83 455.679 1785.33 453.593 1785.33 451.398ZM1790.93 362.635L1706.95 477.911H1728.52L1812.51 362.635H1790.93Z" fill="white" fill-opacity="0.08"/>
<path d="M1835.43 389.148C1835.43 394.418 1836.69 399.304 1839.22 403.805C1841.85 408.196 1845.42 411.709 1849.92 414.344C1854.42 416.979 1859.47 418.297 1865.07 418.297C1870.78 418.297 1875.83 416.979 1880.22 414.344C1884.72 411.709 1888.24 408.196 1890.76 403.805C1893.29 399.304 1894.55 394.418 1894.55 389.148C1894.55 383.659 1893.29 378.718 1890.76 374.327C1888.24 369.935 1884.72 366.477 1880.22 363.952C1875.83 361.317 1870.78 360 1865.07 360C1859.47 360 1854.42 361.317 1849.92 363.952C1845.42 366.477 1841.85 369.935 1839.22 374.327C1836.69 378.718 1835.43 383.659 1835.43 389.148ZM1853.21 389.148C1853.21 386.843 1853.71 384.757 1854.7 382.89C1855.68 381.024 1857.06 379.542 1858.81 378.444C1860.57 377.236 1862.65 376.632 1865.07 376.632C1867.49 376.632 1869.52 377.236 1871.16 378.444C1872.92 379.542 1874.29 381.024 1875.28 382.89C1876.27 384.757 1876.76 386.843 1876.76 389.148C1876.76 391.344 1876.27 393.43 1875.28 395.406C1874.29 397.272 1872.92 398.755 1871.16 399.852C1869.52 400.95 1867.49 401.499 1865.07 401.499C1862.65 401.499 1860.57 400.95 1858.81 399.852C1857.06 398.755 1855.68 397.272 1854.7 395.406C1853.71 393.43 1853.21 391.344 1853.21 389.148ZM1910.36 451.398C1910.36 456.777 1911.62 461.663 1914.14 466.054C1916.78 470.446 1920.35 473.959 1924.85 476.594C1929.35 479.229 1934.4 480.546 1940 480.546C1945.71 480.546 1950.76 479.229 1955.15 476.594C1959.65 473.959 1963.17 470.446 1965.69 466.054C1968.22 461.663 1969.48 456.777 1969.48 451.398C1969.48 446.018 1968.22 441.132 1965.69 436.741C1963.17 432.24 1959.65 428.727 1955.15 426.201C1950.76 423.567 1945.71 422.249 1940 422.249C1934.4 422.249 1929.35 423.567 1924.85 426.201C1920.35 428.727 1916.78 432.24 1914.14 436.741C1911.62 441.132 1910.36 446.018 1910.36 451.398ZM1928.14 451.398C1928.14 449.092 1928.64 447.006 1929.62 445.14C1930.61 443.273 1931.99 441.791 1933.74 440.693C1935.5 439.595 1937.58 439.046 1940 439.046C1942.42 439.046 1944.45 439.595 1946.09 440.693C1947.85 441.791 1949.22 443.273 1950.21 445.14C1951.2 447.006 1951.69 449.092 1951.69 451.398C1951.69 453.593 1951.2 455.679 1950.21 457.655C1949.22 459.522 1947.85 461.004 1946.09 462.102C1944.45 463.2 1942.42 463.749 1940 463.749C1937.58 463.749 1935.5 463.2 1933.74 462.102C1931.99 461.004 1930.61 459.522 1929.62 457.655C1928.64 455.679 1928.14 453.593 1928.14 451.398ZM1933.74 362.635L1849.75 477.911H1871.33L1955.32 362.635H1933.74Z" fill="white" fill-opacity="0.08"/>
<path d="M1978.24 389.148C1978.24 394.418 1979.5 399.304 1982.02 403.805C1984.66 408.196 1988.23 411.709 1992.73 414.344C1997.23 416.979 2002.28 418.297 2007.88 418.297C2013.59 418.297 2018.64 416.979 2023.03 414.344C2027.53 411.709 2031.04 408.196 2033.57 403.805C2036.09 399.304 2037.36 394.418 2037.36 389.148C2037.36 383.659 2036.09 378.718 2033.57 374.327C2031.04 369.935 2027.53 366.477 2023.03 363.952C2018.64 361.317 2013.59 360 2007.88 360C2002.28 360 1997.23 361.317 1992.73 363.952C1988.23 366.477 1984.66 369.935 1982.02 374.327C1979.5 378.718 1978.24 383.659 1978.24 389.148ZM1996.02 389.148C1996.02 386.843 1996.52 384.757 1997.5 382.89C1998.49 381.024 1999.86 379.542 2001.62 378.444C2003.38 377.236 2005.46 376.632 2007.88 376.632C2010.29 376.632 2012.33 377.236 2013.97 378.444C2015.73 379.542 2017.1 381.024 2018.09 382.89C2019.08 384.757 2019.57 386.843 2019.57 389.148C2019.57 391.344 2019.08 393.43 2018.09 395.406C2017.1 397.272 2015.73 398.755 2013.97 399.852C2012.33 400.95 2010.29 401.499 2007.88 401.499C2005.46 401.499 2003.38 400.95 2001.62 399.852C1999.86 398.755 1998.49 397.272 1997.5 395.406C1996.52 393.43 1996.02 391.344 1996.02 389.148ZM2053.17 451.398C2053.17 456.777 2054.43 461.663 2056.95 466.054C2059.59 470.446 2063.16 473.959 2067.66 476.594C2072.16 479.229 2077.21 480.546 2082.81 480.546C2088.52 480.546 2093.57 479.229 2097.96 476.594C2102.46 473.959 2105.97 470.446 2108.5 466.054C2111.02 461.663 2112.29 456.777 2112.29 451.398C2112.29 446.018 2111.02 441.132 2108.5 436.741C2105.97 432.24 2102.46 428.727 2097.96 426.201C2093.57 423.567 2088.52 422.249 2082.81 422.249C2077.21 422.249 2072.16 423.567 2067.66 426.201C2063.16 428.727 2059.59 432.24 2056.95 436.741C2054.43 441.132 2053.17 446.018 2053.17 451.398ZM2070.95 451.398C2070.95 449.092 2071.45 447.006 2072.43 445.14C2073.42 443.273 2074.79 441.791 2076.55 440.693C2078.31 439.595 2080.39 439.046 2082.81 439.046C2085.22 439.046 2087.26 439.595 2088.9 440.693C2090.66 441.791 2092.03 443.273 2093.02 445.14C2094.01 447.006 2094.5 449.092 2094.5 451.398C2094.5 453.593 2094.01 455.679 2093.02 457.655C2092.03 459.522 2090.66 461.004 2088.9 462.102C2087.26 463.2 2085.22 463.749 2082.81 463.749C2080.39 463.749 2078.31 463.2 2076.55 462.102C2074.79 461.004 2073.42 459.522 2072.43 457.655C2071.45 455.679 2070.95 453.593 2070.95 451.398ZM2076.55 362.635L1992.56 477.911H2014.14L2098.12 362.635H2076.55Z" fill="white" fill-opacity="0.08"/>
<path d="M2121.05 389.148C2121.05 394.418 2122.31 399.304 2124.83 403.805C2127.47 408.196 2131.04 411.709 2135.54 414.344C2140.04 416.979 2145.09 418.297 2150.69 418.297C2156.4 418.297 2161.45 416.979 2165.84 414.344C2170.34 411.709 2173.85 408.196 2176.38 403.805C2178.9 399.304 2180.17 394.418 2180.17 389.148C2180.17 383.659 2178.9 378.718 2176.38 374.327C2173.85 369.935 2170.34 366.477 2165.84 363.952C2161.45 361.317 2156.4 360 2150.69 360C2145.09 360 2140.04 361.317 2135.54 363.952C2131.04 366.477 2127.47 369.935 2124.83 374.327C2122.31 378.718 2121.05 383.659 2121.05 389.148ZM2138.83 389.148C2138.83 386.843 2139.33 384.757 2140.31 382.89C2141.3 381.024 2142.67 379.542 2144.43 378.444C2146.19 377.236 2148.27 376.632 2150.69 376.632C2153.1 376.632 2155.13 377.236 2156.78 378.444C2158.54 379.542 2159.91 381.024 2160.9 382.89C2161.89 384.757 2162.38 386.843 2162.38 389.148C2162.38 391.344 2161.89 393.43 2160.9 395.406C2159.91 397.272 2158.54 398.755 2156.78 399.852C2155.13 400.95 2153.1 401.499 2150.69 401.499C2148.27 401.499 2146.19 400.95 2144.43 399.852C2142.67 398.755 2141.3 397.272 2140.31 395.406C2139.33 393.43 2138.83 391.344 2138.83 389.148ZM2195.98 451.398C2195.98 456.777 2197.24 461.663 2199.76 466.054C2202.4 470.446 2205.97 473.959 2210.47 476.594C2214.97 479.229 2220.02 480.546 2225.62 480.546C2231.33 480.546 2236.38 479.229 2240.77 476.594C2245.27 473.959 2248.78 470.446 2251.31 466.054C2253.83 461.663 2255.1 456.777 2255.1 451.398C2255.1 446.018 2253.83 441.132 2251.31 436.741C2248.78 432.24 2245.27 428.727 2240.77 426.201C2236.38 423.567 2231.33 422.249 2225.62 422.249C2220.02 422.249 2214.97 423.567 2210.47 426.201C2205.97 428.727 2202.4 432.24 2199.76 436.741C2197.24 441.132 2195.98 446.018 2195.98 451.398ZM2213.76 451.398C2213.76 449.092 2214.26 447.006 2215.24 445.14C2216.23 443.273 2217.6 441.791 2219.36 440.693C2221.12 439.595 2223.2 439.046 2225.62 439.046C2228.03 439.046 2230.06 439.595 2231.71 440.693C2233.47 441.791 2234.84 443.273 2235.83 445.14C2236.82 447.006 2237.31 449.092 2237.31 451.398C2237.31 453.593 2236.82 455.679 2235.83 457.655C2234.84 459.522 2233.47 461.004 2231.71 462.102C2230.06 463.2 2228.03 463.749 2225.62 463.749C2223.2 463.749 2221.12 463.2 2219.36 462.102C2217.6 461.004 2216.23 459.522 2215.24 457.655C2214.26 455.679 2213.76 453.593 2213.76 451.398ZM2219.36 362.635L2135.37 477.911H2156.95L2240.93 362.635H2219.36Z" fill="white" fill-opacity="0.08"/>
<path d="M2263.86 389.148C2263.86 394.418 2265.12 399.304 2267.64 403.805C2270.28 408.196 2273.85 411.709 2278.35 414.344C2282.85 416.979 2287.9 418.297 2293.5 418.297C2299.21 418.297 2304.26 416.979 2308.65 414.344C2313.15 411.709 2316.66 408.196 2319.19 403.805C2321.71 399.304 2322.98 394.418 2322.98 389.148C2322.98 383.659 2321.71 378.718 2319.19 374.327C2316.66 369.935 2313.15 366.477 2308.65 363.952C2304.26 361.317 2299.21 360 2293.5 360C2287.9 360 2282.85 361.317 2278.35 363.952C2273.85 366.477 2270.28 369.935 2267.64 374.327C2265.12 378.718 2263.86 383.659 2263.86 389.148ZM2281.64 389.148C2281.64 386.843 2282.13 384.757 2283.12 382.89C2284.11 381.024 2285.48 379.542 2287.24 378.444C2289 377.236 2291.08 376.632 2293.5 376.632C2295.91 376.632 2297.94 377.236 2299.59 378.444C2301.35 379.542 2302.72 381.024 2303.71 382.89C2304.7 384.757 2305.19 386.843 2305.19 389.148C2305.19 391.344 2304.7 393.43 2303.71 395.406C2302.72 397.272 2301.35 398.755 2299.59 399.852C2297.94 400.95 2295.91 401.499 2293.5 401.499C2291.08 401.499 2289 400.95 2287.24 399.852C2285.48 398.755 2284.11 397.272 2283.12 395.406C2282.13 393.43 2281.64 391.344 2281.64 389.148ZM2338.78 451.398C2338.78 456.777 2340.05 461.663 2342.57 466.054C2345.21 470.446 2348.78 473.959 2353.28 476.594C2357.78 479.229 2362.83 480.546 2368.43 480.546C2374.14 480.546 2379.19 479.229 2383.58 476.594C2388.08 473.959 2391.59 470.446 2394.12 466.054C2396.64 461.663 2397.91 456.777 2397.91 451.398C2397.91 446.018 2396.64 441.132 2394.12 436.741C2391.59 432.24 2388.08 428.727 2383.58 426.201C2379.19 423.567 2374.14 422.249 2368.43 422.249C2362.83 422.249 2357.78 423.567 2353.28 426.201C2348.78 428.727 2345.21 432.24 2342.57 436.741C2340.05 441.132 2338.78 446.018 2338.78 451.398ZM2356.57 451.398C2356.57 449.092 2357.06 447.006 2358.05 445.14C2359.04 443.273 2360.41 441.791 2362.17 440.693C2363.93 439.595 2366.01 439.046 2368.43 439.046C2370.84 439.046 2372.87 439.595 2374.52 440.693C2376.28 441.791 2377.65 443.273 2378.64 445.14C2379.63 447.006 2380.12 449.092 2380.12 451.398C2380.12 453.593 2379.63 455.679 2378.64 457.655C2377.65 459.522 2376.28 461.004 2374.52 462.102C2372.87 463.2 2370.84 463.749 2368.43 463.749C2366.01 463.749 2363.93 463.2 2362.17 462.102C2360.41 461.004 2359.04 459.522 2358.05 457.655C2357.06 455.679 2356.57 453.593 2356.57 451.398ZM2362.17 362.635L2278.18 477.911H2299.76L2383.74 362.635H2362.17Z" fill="white" fill-opacity="0.08"/>
<path d="M2406.66 389.148C2406.66 394.418 2407.93 399.304 2410.45 403.805C2413.09 408.196 2416.65 411.709 2421.16 414.344C2425.66 416.979 2430.71 418.297 2436.31 418.297C2442.02 418.297 2447.07 416.979 2451.46 414.344C2455.96 411.709 2459.47 408.196 2462 403.805C2464.52 399.304 2465.78 394.418 2465.78 389.148C2465.78 383.659 2464.52 378.718 2462 374.327C2459.47 369.935 2455.96 366.477 2451.46 363.952C2447.07 361.317 2442.02 360 2436.31 360C2430.71 360 2425.66 361.317 2421.16 363.952C2416.65 366.477 2413.09 369.935 2410.45 374.327C2407.93 378.718 2406.66 383.659 2406.66 389.148ZM2424.45 389.148C2424.45 386.843 2424.94 384.757 2425.93 382.89C2426.92 381.024 2428.29 379.542 2430.05 378.444C2431.81 377.236 2433.89 376.632 2436.31 376.632C2438.72 376.632 2440.75 377.236 2442.4 378.444C2444.16 379.542 2445.53 381.024 2446.52 382.89C2447.51 384.757 2448 386.843 2448 389.148C2448 391.344 2447.51 393.43 2446.52 395.406C2445.53 397.272 2444.16 398.755 2442.4 399.852C2440.75 400.95 2438.72 401.499 2436.31 401.499C2433.89 401.499 2431.81 400.95 2430.05 399.852C2428.29 398.755 2426.92 397.272 2425.93 395.406C2424.94 393.43 2424.45 391.344 2424.45 389.148ZM2481.59 451.398C2481.59 456.777 2482.86 461.663 2485.38 466.054C2488.02 470.446 2491.58 473.959 2496.09 476.594C2500.59 479.229 2505.64 480.546 2511.24 480.546C2516.95 480.546 2522 479.229 2526.39 476.594C2530.89 473.959 2534.4 470.446 2536.93 466.054C2539.45 461.663 2540.71 456.777 2540.71 451.398C2540.71 446.018 2539.45 441.132 2536.93 436.741C2534.4 432.24 2530.89 428.727 2526.39 426.201C2522 423.567 2516.95 422.249 2511.24 422.249C2505.64 422.249 2500.59 423.567 2496.09 426.201C2491.58 428.727 2488.02 432.24 2485.38 436.741C2482.86 441.132 2481.59 446.018 2481.59 451.398ZM2499.38 451.398C2499.38 449.092 2499.87 447.006 2500.86 445.14C2501.85 443.273 2503.22 441.791 2504.98 440.693C2506.74 439.595 2508.82 439.046 2511.24 439.046C2513.65 439.046 2515.68 439.595 2517.33 440.693C2519.09 441.791 2520.46 443.273 2521.45 445.14C2522.43 447.006 2522.93 449.092 2522.93 451.398C2522.93 453.593 2522.43 455.679 2521.45 457.655C2520.46 459.522 2519.09 461.004 2517.33 462.102C2515.68 463.2 2513.65 463.749 2511.24 463.749C2508.82 463.749 2506.74 463.2 2504.98 462.102C2503.22 461.004 2501.85 459.522 2500.86 457.655C2499.87 455.679 2499.38 453.593 2499.38 451.398ZM2504.98 362.635L2420.99 477.911H2442.56L2526.55 362.635H2504.98Z" fill="white" fill-opacity="0.08"/>
<path d="M2549.47 389.148C2549.47 394.418 2550.74 399.304 2553.26 403.805C2555.9 408.196 2559.46 411.709 2563.97 414.344C2568.47 416.979 2573.52 418.297 2579.12 418.297C2584.82 418.297 2589.88 416.979 2594.27 414.344C2598.77 411.709 2602.28 408.196 2604.81 403.805C2607.33 399.304 2608.59 394.418 2608.59 389.148C2608.59 383.659 2607.33 378.718 2604.81 374.327C2602.28 369.935 2598.77 366.477 2594.27 363.952C2589.88 361.317 2584.82 360 2579.12 360C2573.52 360 2568.47 361.317 2563.97 363.952C2559.46 366.477 2555.9 369.935 2553.26 374.327C2550.74 378.718 2549.47 383.659 2549.47 389.148ZM2567.26 389.148C2567.26 386.843 2567.75 384.757 2568.74 382.89C2569.73 381.024 2571.1 379.542 2572.86 378.444C2574.61 377.236 2576.7 376.632 2579.12 376.632C2581.53 376.632 2583.56 377.236 2585.21 378.444C2586.97 379.542 2588.34 381.024 2589.33 382.89C2590.31 384.757 2590.81 386.843 2590.81 389.148C2590.81 391.344 2590.31 393.43 2589.33 395.406C2588.34 397.272 2586.97 398.755 2585.21 399.852C2583.56 400.95 2581.53 401.499 2579.12 401.499C2576.7 401.499 2574.61 400.95 2572.86 399.852C2571.1 398.755 2569.73 397.272 2568.74 395.406C2567.75 393.43 2567.26 391.344 2567.26 389.148ZM2624.4 451.398C2624.4 456.777 2625.67 461.663 2628.19 466.054C2630.83 470.446 2634.39 473.959 2638.9 476.594C2643.4 479.229 2648.45 480.546 2654.05 480.546C2659.75 480.546 2664.8 479.229 2669.2 476.594C2673.7 473.959 2677.21 470.446 2679.74 466.054C2682.26 461.663 2683.52 456.777 2683.52 451.398C2683.52 446.018 2682.26 441.132 2679.74 436.741C2677.21 432.24 2673.7 428.727 2669.2 426.201C2664.8 423.567 2659.75 422.249 2654.05 422.249C2648.45 422.249 2643.4 423.567 2638.9 426.201C2634.39 428.727 2630.83 432.24 2628.19 436.741C2625.67 441.132 2624.4 446.018 2624.4 451.398ZM2642.19 451.398C2642.19 449.092 2642.68 447.006 2643.67 445.14C2644.66 443.273 2646.03 441.791 2647.79 440.693C2649.54 439.595 2651.63 439.046 2654.05 439.046C2656.46 439.046 2658.49 439.595 2660.14 440.693C2661.9 441.791 2663.27 443.273 2664.26 445.14C2665.24 447.006 2665.74 449.092 2665.74 451.398C2665.74 453.593 2665.24 455.679 2664.26 457.655C2663.27 459.522 2661.9 461.004 2660.14 462.102C2658.49 463.2 2656.46 463.749 2654.05 463.749C2651.63 463.749 2649.54 463.2 2647.79 462.102C2646.03 461.004 2644.66 459.522 2643.67 457.655C2642.68 455.679 2642.19 453.593 2642.19 451.398ZM2647.79 362.635L2563.8 477.911H2585.37L2669.36 362.635H2647.79Z" fill="white" fill-opacity="0.08"/>
<path d="M2692.28 389.148C2692.28 394.418 2693.55 399.304 2696.07 403.805C2698.71 408.196 2702.27 411.709 2706.77 414.344C2711.28 416.979 2716.33 418.297 2721.93 418.297C2727.63 418.297 2732.68 416.979 2737.08 414.344C2741.58 411.709 2745.09 408.196 2747.62 403.805C2750.14 399.304 2751.4 394.418 2751.4 389.148C2751.4 383.659 2750.14 378.718 2747.62 374.327C2745.09 369.935 2741.58 366.477 2737.08 363.952C2732.68 361.317 2727.63 360 2721.93 360C2716.33 360 2711.28 361.317 2706.77 363.952C2702.27 366.477 2698.71 369.935 2696.07 374.327C2693.55 378.718 2692.28 383.659 2692.28 389.148ZM2710.07 389.148C2710.07 386.843 2710.56 384.757 2711.55 382.89C2712.54 381.024 2713.91 379.542 2715.67 378.444C2717.42 377.236 2719.51 376.632 2721.93 376.632C2724.34 376.632 2726.37 377.236 2728.02 378.444C2729.77 379.542 2731.15 381.024 2732.14 382.89C2733.12 384.757 2733.62 386.843 2733.62 389.148C2733.62 391.344 2733.12 393.43 2732.14 395.406C2731.15 397.272 2729.77 398.755 2728.02 399.852C2726.37 400.95 2724.34 401.499 2721.93 401.499C2719.51 401.499 2717.42 400.95 2715.67 399.852C2713.91 398.755 2712.54 397.272 2711.55 395.406C2710.56 393.43 2710.07 391.344 2710.07 389.148ZM2767.21 451.398C2767.21 456.777 2768.47 461.663 2771 466.054C2773.63 470.446 2777.2 473.959 2781.7 476.594C2786.21 479.229 2791.26 480.546 2796.85 480.546C2802.56 480.546 2807.61 479.229 2812.01 476.594C2816.51 473.959 2820.02 470.446 2822.55 466.054C2825.07 461.663 2826.33 456.777 2826.33 451.398C2826.33 446.018 2825.07 441.132 2822.55 436.741C2820.02 432.24 2816.51 428.727 2812.01 426.201C2807.61 423.567 2802.56 422.249 2796.85 422.249C2791.26 422.249 2786.21 423.567 2781.7 426.201C2777.2 428.727 2773.63 432.24 2771 436.741C2768.47 441.132 2767.21 446.018 2767.21 451.398ZM2785 451.398C2785 449.092 2785.49 447.006 2786.48 445.14C2787.47 443.273 2788.84 441.791 2790.6 440.693C2792.35 439.595 2794.44 439.046 2796.85 439.046C2799.27 439.046 2801.3 439.595 2802.95 440.693C2804.7 441.791 2806.08 443.273 2807.07 445.14C2808.05 447.006 2808.55 449.092 2808.55 451.398C2808.55 453.593 2808.05 455.679 2807.07 457.655C2806.08 459.522 2804.7 461.004 2802.95 462.102C2801.3 463.2 2799.27 463.749 2796.85 463.749C2794.44 463.749 2792.35 463.2 2790.6 462.102C2788.84 461.004 2787.47 459.522 2786.48 457.655C2785.49 455.679 2785 453.593 2785 451.398ZM2790.6 362.635L2706.61 477.911H2728.18L2812.17 362.635H2790.6Z" fill="white" fill-opacity="0.08"/>
</g>
</svg>
